<svg width="30" height="30" viewBox="0 0 30 30" fill="none" xmlns="http://www.w3.org/2000/svg">
<g id="assignment_24px">
<path id="icon/action/assignment_24px" fill-rule="evenodd" clip-rule="evenodd" d="M18.525 5H23.75C25.125 5 26.25 6.125 26.25 7.5V25C26.25 26.375 25.125 27.5 23.75 27.5H6.25C6.075 27.5 5.9125 27.4875 5.75 27.4625C5.2625 27.3625 4.825 27.1125 4.4875 26.775C4.2625 26.5375 4.075 26.275 3.95 25.975C3.825 25.675 3.75 25.3375 3.75 25V7.5C3.75 7.15 3.825 6.825 3.95 6.5375C4.075 6.2375 4.2625 5.9625 4.4875 5.7375C4.825 5.4 5.2625 5.15 5.75 5.05C5.9125 5.0125 6.075 5 6.25 5H11.475C12 3.55 13.375 2.5 15 2.5C16.625 2.5 18 3.55 18.525 5ZM8.75 12.5V10H21.25V12.5H8.75ZM21.25 17.5V15H8.75V17.5H21.25ZM17.5 20H8.75V22.5H17.5V20ZM15 4.6875C15.5125 4.6875 15.9375 5.1125 15.9375 5.625C15.9375 6.1375 15.5125 6.5625 15 6.5625C14.4875 6.5625 14.0625 6.1375 14.0625 5.625C14.0625 5.1125 14.4875 4.6875 15 4.6875ZM6.25 25H23.75V7.5H6.25V25Z" fill="#C4C4C4"/>
</g>
</svg>
