<svg width="28" height="28" viewBox="0 0 28 28" fill="none" xmlns="http://www.w3.org/2000/svg">
<g id="person_24px">
<path id="icon/social/person_24px" fill-rule="evenodd" clip-rule="evenodd" d="M14.0001 4.66666C11.4217 4.66666 9.33342 6.75499 9.33342 9.33332C9.33342 11.9117 11.4217 14 14.0001 14C16.5784 14 18.6667 11.9117 18.6667 9.33332C18.6667 6.75499 16.5784 4.66666 14.0001 4.66666ZM16.3334 9.33332C16.3334 8.04999 15.2834 6.99999 14.0001 6.99999C12.7167 6.99999 11.6667 8.04999 11.6667 9.33332C11.6667 10.6167 12.7167 11.6667 14.0001 11.6667C15.2834 11.6667 16.3334 10.6167 16.3334 9.33332ZM21.0001 21C20.7667 20.1717 17.1501 18.6667 14.0001 18.6667C10.8617 18.6667 7.26841 20.16 7.00008 21H21.0001ZM4.66675 21C4.66675 17.8967 10.8851 16.3333 14.0001 16.3333C17.1151 16.3333 23.3334 17.8967 23.3334 21V23.3333H4.66675V21Z" fill="#C4C4C4"/>
</g>
</svg>
