<svg width="27" height="27" viewBox="0 0 27 27" fill="none" xmlns="http://www.w3.org/2000/svg">
<g id="settings_24px">
<path id="icon/action/settings_24px" fill-rule="evenodd" clip-rule="evenodd" d="M20.508 13.5C20.508 13.8825 20.4742 14.2425 20.4292 14.6025L22.803 16.4587C23.0167 16.6275 23.073 16.9313 22.938 17.1788L20.688 21.0712C20.5867 21.2512 20.3955 21.3525 20.2042 21.3525C20.1367 21.3525 20.0692 21.3413 20.0017 21.3188L17.2005 20.1938C16.6155 20.6325 15.9855 21.015 15.2992 21.2962L14.8717 24.2775C14.838 24.5475 14.6017 24.75 14.3205 24.75H9.8205C9.53925 24.75 9.303 24.5475 9.26925 24.2775L8.84175 21.2962C8.1555 21.015 7.5255 20.6437 6.9405 20.1938L4.13925 21.3188C4.083 21.3413 4.0155 21.3525 3.948 21.3525C3.7455 21.3525 3.55425 21.2512 3.453 21.0712L1.203 17.1788C1.068 16.9313 1.12425 16.6275 1.338 16.4587L3.71175 14.6025C3.66675 14.2425 3.633 13.8713 3.633 13.5C3.633 13.1287 3.66675 12.7575 3.71175 12.3975L1.338 10.5413C1.12425 10.3725 1.05675 10.0687 1.203 9.82125L3.453 5.92875C3.55425 5.74875 3.7455 5.6475 3.93675 5.6475C4.00425 5.6475 4.07175 5.65875 4.13925 5.68125L6.9405 6.80625C7.5255 6.3675 8.1555 5.985 8.84175 5.70375L9.26925 2.7225C9.303 2.4525 9.53925 2.25 9.8205 2.25H14.3205C14.6017 2.25 14.838 2.4525 14.8717 2.7225L15.2992 5.70375C15.9855 5.985 16.6155 6.35625 17.2005 6.80625L20.0017 5.68125C20.058 5.65875 20.1255 5.6475 20.193 5.6475C20.3955 5.6475 20.5867 5.74875 20.688 5.92875L22.938 9.82125C23.073 10.0687 23.0167 10.3725 22.803 10.5413L20.4292 12.3975C20.4742 12.7575 20.508 13.1175 20.508 13.5ZM18.258 13.5C18.258 13.2638 18.2467 13.0275 18.2017 12.6788L18.0442 11.4075L19.0455 10.62L20.2492 9.66375L19.4618 8.3025L18.033 8.87625L16.8405 9.36L15.8167 8.5725C15.3667 8.235 14.9167 7.97625 14.433 7.77375L13.2405 7.29L13.0605 6.01875L12.8467 4.5H11.283L11.058 6.01875L10.878 7.29L9.6855 7.77375C9.22425 7.965 8.763 8.235 8.27925 8.595L7.26675 9.36L6.09675 8.8875L4.668 8.31375L3.8805 9.675L5.0955 10.62L6.09675 11.4075L5.93925 12.6788C5.9055 13.0162 5.883 13.275 5.883 13.5C5.883 13.725 5.9055 13.9837 5.93925 14.3325L6.09675 15.6038L5.0955 16.3912L3.8805 17.3363L4.668 18.6975L6.09675 18.1237L7.28925 17.64L8.313 18.4275C8.763 18.765 9.213 19.0238 9.69675 19.2262L10.8892 19.71L11.0692 20.9812L11.283 22.5H12.858L13.083 20.9812L13.263 19.71L14.4555 19.2262C14.9167 19.035 15.378 18.765 15.8617 18.405L16.8742 17.64L18.0442 18.1125L19.473 18.6862L20.2605 17.325L19.0455 16.38L18.0442 15.5925L18.2017 14.3212C18.2355 13.9837 18.258 13.7362 18.258 13.5ZM12.0705 9C9.58424 9 7.5705 11.0138 7.5705 13.5C7.5705 15.9862 9.58424 18 12.0705 18C14.5567 18 16.5705 15.9862 16.5705 13.5C16.5705 11.0138 14.5567 9 12.0705 9ZM9.8205 13.5C9.8205 14.7375 10.833 15.75 12.0705 15.75C13.308 15.75 14.3205 14.7375 14.3205 13.5C14.3205 12.2625 13.308 11.25 12.0705 11.25C10.833 11.25 9.8205 12.2625 9.8205 13.5Z" fill="#C4C4C4"/>
</g>
</svg>
